<svg width="400" height="400" viewBox="0 0 400 400" fill="none" xmlns="http://www.w3.org/2000/svg">
<g id="home-bg 1" clip-path="url(#clip0)">
<g id="stars4">
<path id="Vector" d="M400 0H0V400H400V0Z" fill="#051323"/>
<path id="Vector_2" d="M463.5 440L365.5 368.5L260 330L154.5 269L20 299.5L147.5 382L63.25 439.75L20 299.5L-98.5 246.5L51 191L-15.5 114.5L63.25 39.75L-34.5 -31.5M384.5 114.5L518.5 130.45L384.5 114.5Z" stroke="#051323" stroke-width="0.5"/>
<path id="Vector_3" d="M185 452.5L147.5 382M-15.5 114.5L118.5 130.5L195 191L301.5 246.5L154.25 268.75L50.75 190.75L-15.5 114.5Z" stroke="#051323" stroke-width="0.5"/>
<path id="Vector_4" d="M260 330L289 421L365.5 368.5L420 299.5L301.5 246.5L260 330ZM260 330L147.5 382L154.5 269L195 191L269.5 134.5L384.5 114.5L288.75 20.75L185 52.5L147.5 -18L63.25 39.75L118.5 130.5L51 191L20 299.5L-34.5 368.5L63.5 440" stroke="#051323" stroke-width="0.5"/>
<path id="Vector_5" d="M195 191H51M260 -70L289.25 21.25L365.5 -31.5L260 -70ZM301.5 246.5L269.5 134.5L118.5 130.5L185 52.5L301.5 246.5ZM451 191L269.5 134.5L451 191Z" stroke="#051323" stroke-width="0.5"/>
<path id="Vector_6" d="M51 191L-130.5 134.5M-111 21L63.25 39.75L185 52.5L269.5 134.5L288.75 20.75L463.5 40L384.5 114.5L451 191L301.5 246.5L365.5 368.5L-111 21ZM147.5 -18L288.75 20.75L147.5 -18ZM289 421L147.5 382L289 421ZM20 -100.5L63.5 40L20 -100.5Z" stroke="#051323" stroke-width="0.5"/>
</g>
<g id="stars3">
<path id="Vector_7" d="M384.5 117C385.881 117 387 115.881 387 114.5C387 113.119 385.881 112 384.5 112C383.119 112 382 113.119 382 114.5C382 115.881 383.119 117 384.5 117Z" fill="#2E2E2E"/>
<path id="Vector_8" d="M269.5 137C270.881 137 272 135.881 272 134.5C272 133.119 270.881 132 269.5 132C268.119 132 267 133.119 267 134.5C267 135.881 268.119 137 269.5 137Z" fill="#2E2E2E"/>
<path id="Vector_9" d="M301.5 249C302.881 249 304 247.881 304 246.5C304 245.119 302.881 244 301.5 244C300.119 244 299 245.119 299 246.5C299 247.881 300.119 249 301.5 249Z" fill="#2E2E2E"/>
<path id="Vector_10" d="M365.5 371C366.881 371 368 369.881 368 368.5C368 367.119 366.881 366 365.5 366C364.119 366 363 367.119 363 368.5C363 369.881 364.119 371 365.5 371Z" fill="#2E2E2E"/>
<path id="Vector_11" d="M260 332.5C261.381 332.5 262.5 331.381 262.5 330C262.5 328.619 261.381 327.5 260 327.5C258.619 327.5 257.5 328.619 257.5 330C257.5 331.381 258.619 332.5 260 332.5Z" fill="#2E2E2E"/>
<path id="Vector_12" d="M154.5 271.5C155.881 271.5 157 270.381 157 269C157 267.619 155.881 266.5 154.5 266.5C153.119 266.5 152 267.619 152 269C152 270.381 153.119 271.5 154.5 271.5Z" fill="#2E2E2E"/>
<path id="Vector_13" d="M147.5 384.5C148.881 384.5 150 383.381 150 382C150 380.619 148.881 379.5 147.5 379.5C146.119 379.5 145 380.619 145 382C145 383.381 146.119 384.5 147.5 384.5Z" fill="#2E2E2E"/>
<path id="Vector_14" d="M20 302C21.3807 302 22.5 300.881 22.5 299.5C22.5 298.119 21.3807 297 20 297C18.6193 297 17.5 298.119 17.5 299.5C17.5 300.881 18.6193 302 20 302Z" fill="#2E2E2E"/>
<path id="Vector_15" d="M51 193.5C52.3807 193.5 53.5 192.381 53.5 191C53.5 189.619 52.3807 188.5 51 188.5C49.6193 188.5 48.5 189.619 48.5 191C48.5 192.381 49.6193 193.5 51 193.5Z" fill="#2E2E2E"/>
<path id="Vector_16" d="M63.5 42.5C64.8807 42.5 66 41.3807 66 40C66 38.6193 64.8807 37.5 63.5 37.5C62.1193 37.5 61 38.6193 61 40C61 41.3807 62.1193 42.5 63.5 42.5Z" fill="#2E2E2E"/>
<path id="Vector_17" d="M73.5 55C74.8807 55 76 53.8807 76 52.5C76 51.1193 74.8807 50 73.5 50C72.1193 50 71 51.1193 71 52.5C71 53.8807 72.1193 55 73.5 55Z" fill="#2E2E2E"/>
<path id="Vector_18" d="M185 55C186.381 55 187.5 53.8807 187.5 52.5C187.5 51.1193 186.381 50 185 50C183.619 50 182.5 51.1193 182.5 52.5C182.5 53.8807 183.619 55 185 55Z" fill="#2E2E2E"/>
<path id="Vector_19" d="M289 23.5C290.381 23.5 291.5 22.3807 291.5 21C291.5 19.6193 290.381 18.5 289 18.5C287.619 18.5 286.5 19.6193 286.5 21C286.5 22.3807 287.619 23.5 289 23.5Z" fill="#2E2E2E"/>
<path id="Vector_20" d="M118.5 133C119.881 133 121 131.881 121 130.5C121 129.119 119.881 128 118.5 128C117.119 128 116 129.119 116 130.5C116 131.881 117.119 133 118.5 133Z" fill="#2E2E2E"/>
<path id="Vector_21" d="M195 193.5C196.381 193.5 197.5 192.381 197.5 191C197.5 189.619 196.381 188.5 195 188.5C193.619 188.5 192.5 189.619 192.5 191C192.5 192.381 193.619 193.5 195 193.5Z" fill="#2E2E2E"/>
</g>
<g id="stars2">
<path id="Vector_22" d="M85.5 249C86.8807 249 88 247.881 88 246.5C88 245.119 86.8807 244 85.5 244C84.1193 244 83 245.119 83 246.5C83 247.881 84.1193 249 85.5 249Z" fill="#4B4B4B"/>
<path id="Vector_23" d="M360.5 194C361.881 194 363 192.881 363 191.5C363 190.119 361.881 189 360.5 189C359.119 189 358 190.119 358 191.5C358 192.881 359.119 194 360.5 194Z" fill="#4B4B4B"/>
<path id="Vector_24" d="M362.5 28C363.881 28 365 26.8807 365 25.5C365 24.1193 363.881 23 362.5 23C361.119 23 360 24.1193 360 25.5C360 26.8807 361.119 28 362.5 28Z" fill="#4B4B4B"/>
<path id="Vector_25" d="M24.5 222C25.8807 222 27 220.881 27 219.5C27 218.119 25.8807 217 24.5 217C23.1193 217 22 218.119 22 219.5C22 220.881 23.1193 222 24.5 222Z" fill="#4B4B4B"/>
<path id="Vector_26" d="M227.5 272C228.881 272 230 270.881 230 269.5C230 268.119 228.881 267 227.5 267C226.119 267 225 268.119 225 269.5C225 270.881 226.119 272 227.5 272Z" fill="#4B4B4B"/>
</g>
<g id="stars1">
<path id="Vector_27" d="M274.5 196C275.881 196 277 194.881 277 193.5C277 192.119 275.881 191 274.5 191C273.119 191 272 192.119 272 193.5C272 194.881 273.119 196 274.5 196Z" fill="#4B4B4B"/>
<path id="Vector_28" d="M35.5 90C36.8807 90 38 88.8807 38 87.5C38 86.1193 36.8807 85 35.5 85C34.1193 85 33 86.1193 33 87.5C33 88.8807 34.1193 90 35.5 90Z" fill="#4B4B4B"/>
<path id="Vector_29" d="M232.5 90C233.881 90 235 88.8807 235 87.5C235 86.1193 233.881 85 232.5 85C231.119 85 230 86.1193 230 87.5C230 88.8807 231.119 90 232.5 90Z" fill="#4B4B4B"/>
<path id="Vector_30" d="M332.5 160C333.881 160 335 158.881 335 157.5C335 156.119 333.881 155 332.5 155C331.119 155 330 156.119 330 157.5C330 158.881 331.119 160 332.5 160Z" fill="#4B4B4B"/>
<path id="Vector_31" d="M301.5 40C302.881 40 304 38.8807 304 37.5C304 36.1193 302.881 35 301.5 35C300.119 35 299 36.1193 299 37.5C299 38.8807 300.119 40 301.5 40Z" fill="#4B4B4B"/>
<path id="Vector_32" d="M123.5 366C124.881 366 126 364.881 126 363.5C126 362.119 124.881 361 123.5 361C122.119 361 121 362.119 121 363.5C121 364.881 122.119 366 123.5 366Z" fill="#4B4B4B"/>
<path id="Vector_33" d="M35.5 390C36.8807 390 38 388.881 38 387.5C38 386.119 36.8807 385 35.5 385C34.1193 385 33 386.119 33 387.5C33 388.881 34.1193 390 35.5 390Z" fill="#4B4B4B"/>
<path id="Vector_34" d="M274.5 382C275.881 382 277 380.881 277 379.5C277 378.119 275.881 377 274.5 377C273.119 377 272 378.119 272 379.5C272 380.881 273.119 382 274.5 382Z" fill="#4B4B4B"/>
<path id="Vector_35" d="M379.5 322C380.881 322 382 320.881 382 319.5C382 318.119 380.881 317 379.5 317C378.119 317 377 318.119 377 319.5C377 320.881 378.119 322 379.5 322Z" fill="#4B4B4B"/>
<path id="Vector_36" d="M316.5 317C317.881 317 319 315.881 319 314.5C319 313.119 317.881 312 316.5 312C315.119 312 314 313.119 314 314.5C314 315.881 315.119 317 316.5 317Z" fill="#4B4B4B"/>
<path id="Vector_37" d="M20.5 26C21.8807 26 23 24.8807 23 23.5C23 22.1193 21.8807 21 20.5 21C19.1193 21 18 22.1193 18 23.5C18 24.8807 19.1193 26 20.5 26Z" fill="#4B4B4B"/>
<path id="Vector_38" d="M145.5 26C146.881 26 148 24.8807 148 23.5C148 22.1193 146.881 21 145.5 21C144.119 21 143 22.1193 143 23.5C143 24.8807 144.119 26 145.5 26Z" fill="#4B4B4B"/>
<path id="Vector_39" d="M337.5 249C338.881 249 340 247.881 340 246.5C340 245.119 338.881 244 337.5 244C336.119 244 335 245.119 335 246.5C335 247.881 336.119 249 337.5 249Z" fill="#4B4B4B"/>
<path id="Vector_40" d="M90.5 213C91.8807 213 93 211.881 93 210.5C93 209.119 91.8807 208 90.5 208C89.1193 208 88 209.119 88 210.5C88 211.881 89.1193 213 90.5 213Z" fill="#4B4B4B"/>
</g>
</g>
<defs>
<clipPath id="clip0">
<rect width="400" height="400" fill="white"/>
</clipPath>
</defs>
</svg>
