<svg width="762" height="676" viewBox="0 0 762 676" fill="none" xmlns="http://www.w3.org/2000/svg">
<g id="undraw_Outer_space_re_u9vd 1" clip-path="url(#clip0)">
<g id="background">
<g id="background_2">
<path id="Vector" d="M135.644 199.446C149.927 161.566 172.217 126.993 201.086 97.9426C225.579 73.3053 263.698 74.329 263.698 74.329L263.916 74.0672C273.09 63.1047 285.401 55.0116 299.305 50.8031C313.208 46.5947 328.084 46.4583 342.067 50.4111C345.702 51.4217 348.497 51.8696 349.827 51.4195C374.067 43.199 372.928 24.6446 393.842 9.69735C430.461 -16.4745 551.922 13.5048 569.05 61.6641C582.931 100.696 644.893 119.615 668.043 149.471C671.663 154.139 675.215 158.862 678.698 163.638C680.331 165.857 681.946 168.093 683.542 170.346C699.944 193.361 714.658 217.463 727.575 242.474C736.046 258.816 743.408 275.675 749.615 292.944C773.757 361.331 765.501 412.282 698.933 399.695C691.053 398.201 683.363 396.864 675.861 395.685C664.999 393.967 654.515 392.555 644.41 391.45C630.803 389.95 617.857 388.968 605.573 388.503C601.443 388.342 597.389 388.234 593.41 388.179C534.58 387.388 490.943 398.117 457.699 414.772C452.064 417.588 446.723 420.567 441.678 423.709C433.972 428.482 426.614 433.764 419.656 439.516C410.028 447.522 401.149 456.338 393.123 465.86L392.682 466.383C353.799 512.468 341.003 563.488 313.955 572.471C198.335 610.877 125.21 471.653 117.711 335.46C117.332 328.598 117.123 321.754 117.083 314.931C117.06 311.881 117.075 308.839 117.13 305.805C117.249 297.89 117.609 290.026 118.212 282.257C118.437 279.287 118.698 276.333 118.995 273.394C119.323 270.224 119.679 267.074 120.091 263.944C123.032 240.996 128.178 219.163 135.644 199.446Z" fill="#70478F"/>
<path id="Vector_2" d="M246.024 279.028C242.763 281.134 239.426 276.123 242.75 274.111C246.01 272.006 249.348 277.017 246.024 279.028Z" fill="#E6E6E6"/>
<path id="Vector_3" d="M585.472 207.027C582.211 209.132 578.874 204.121 582.197 202.109C585.458 200.004 588.796 205.015 585.472 207.027Z" fill="#E6E6E6"/>
<path id="Vector_4" d="M354.107 264.301C350.846 266.406 347.509 261.395 350.832 259.383C354.093 257.278 357.431 262.289 354.107 264.301Z" fill="#E6E6E6"/>
<path id="Vector_5" d="M246.024 460.668C242.763 462.773 239.426 457.762 242.75 455.751C246.01 453.645 249.348 458.656 246.024 460.668Z" fill="#E6E6E6"/>
<path id="Vector_6" d="M251.935 147.299C248.674 149.404 245.337 144.393 248.66 142.381C251.921 140.276 255.259 145.287 251.935 147.299Z" fill="#E6E6E6"/>
<path id="Vector_7" d="M482.691 119.62L480.616 119.179L481.07 117.168L479.687 116.875L479.232 118.886L477.157 118.445L476.854 119.786L478.929 120.227L478.475 122.237L479.858 122.531L480.313 120.52L482.387 120.961L482.691 119.62Z" fill="#E6E6E6"/>
<path id="Vector_8" d="M144.85 287.169L142.775 286.728L143.229 284.718L141.846 284.424L141.391 286.434L139.315 285.994L139.012 287.334L141.088 287.775L140.634 289.787L142.017 290.08L142.472 288.069L144.547 288.509L144.85 287.169Z" fill="#E6E6E6"/>
<path id="Vector_9" d="M661.522 315.692C666.513 315.692 670.559 311.772 670.559 306.935C670.559 302.099 666.513 298.179 661.522 298.179C656.531 298.179 652.485 302.099 652.485 306.935C652.485 311.772 656.531 315.692 661.522 315.692Z" fill="#FF6584"/>
<path id="Vector_10" d="M412.371 50.7514C409.11 52.8567 405.772 47.8457 409.096 45.8338C412.357 43.7286 415.694 48.7396 412.371 50.7514Z" fill="#E6E6E6"/>
<path id="Vector_11" d="M276.477 380.33C281.468 380.33 285.514 376.409 285.514 371.573C285.514 366.737 281.468 362.816 276.477 362.816C271.486 362.816 267.44 366.737 267.44 371.573C267.44 376.409 271.486 380.33 276.477 380.33Z" fill="#3F3D56"/>
</g>
</g>
<path id="moon" d="M144.638 251.878C192.672 251.878 231.611 214.147 231.611 167.603C231.611 121.06 192.672 83.3292 144.638 83.3292C96.6043 83.3292 57.6652 121.06 57.6652 167.603C57.6652 214.147 96.6043 251.878 144.638 251.878Z" fill="#FF6584"/>
<g id="spaceship">
<path id="Vector_12" d="M606.747 495.148L591.554 501.988C589.27 503.081 586.68 503.419 584.179 502.951C581.973 502.446 580.483 501.139 580.091 499.365L576.556 483.366C575.889 480.348 578.468 476.777 582.69 474.876L591.08 471.099C595.301 469.198 599.782 469.591 601.732 472.032L612.071 484.968C613.217 486.402 613.287 488.349 612.263 490.308C611.019 492.462 609.082 494.162 606.747 495.148V495.148Z" fill="#3F3D56"/>
<path id="Vector_13" d="M494.009 274.377C484.775 278.543 484.623 297.201 487.518 303.246L492.765 314.189L526.211 299.132L520.964 288.189C518.063 282.146 503.249 270.226 494.009 274.377Z" fill="#3F3D56"/>
<path id="Vector_14" d="M404.13 431.484C403.542 431.484 402.962 431.346 402.44 431.083C401.918 430.82 401.469 430.438 401.132 429.971C400.795 429.503 400.579 428.964 400.503 428.399C400.426 427.833 400.492 427.258 400.694 426.723C400.857 426.285 401.109 425.883 401.434 425.54C401.759 425.198 402.152 424.921 402.588 424.726L575.313 346.966C575.748 346.77 576.219 346.659 576.699 346.639C577.179 346.619 577.658 346.691 578.109 346.851C578.56 347.011 578.974 347.255 579.327 347.57C579.681 347.884 579.967 348.264 580.17 348.686C580.577 349.538 580.619 350.512 580.286 351.394C579.953 352.277 579.273 352.995 578.394 353.392H578.394L405.669 431.152C405.187 431.37 404.662 431.484 404.13 431.484V431.484Z" fill="#3F3D56"/>
<path id="Vector_15" d="M539.24 306.11L489.867 328.338L567.316 489.861L616.689 467.633L539.24 306.11Z" fill="#E6E6E6"/>
<path id="Vector_16" d="M353.899 102.78C344.665 106.945 344.513 125.604 347.408 131.649L352.655 142.592L386.101 127.535L380.854 116.592C377.953 110.549 363.139 98.6285 353.899 102.78Z" fill="#3F3D56"/>
<path id="Vector_17" d="M560.789 513.717L545.596 520.556C543.312 521.649 540.722 521.988 538.221 521.52C536.015 521.014 534.525 519.708 534.133 517.933L530.598 501.934C529.93 498.916 532.51 495.345 536.731 493.445L545.122 489.667C549.343 487.767 553.823 488.16 555.773 490.6L566.112 503.536C567.259 504.971 567.328 506.917 566.305 508.877C565.061 511.03 563.123 512.73 560.789 513.717V513.717Z" fill="#3F3D56"/>
<path id="Vector_18" d="M514.078 536.173L498.885 543.012C496.601 544.105 494.011 544.444 491.51 543.976C489.304 543.47 487.814 542.164 487.422 540.389L483.887 524.39C483.219 521.372 485.799 517.801 490.02 515.901L498.411 512.123C502.632 510.223 507.112 510.616 509.062 513.056L519.401 525.992C520.548 527.427 520.617 529.373 519.594 531.333C518.35 533.486 516.412 535.186 514.078 536.173V536.173Z" fill="#3F3D56"/>
<path id="Vector_19" d="M412.304 161.988L362.931 184.216L519.485 510.716L568.858 488.489L412.304 161.988Z" fill="#E6E6E6"/>
<path id="Vector_20" d="M463.533 330.299L457.993 318.486L461.182 317.061L466.705 328.836L546.682 500.662L543.497 502.096" fill="#3F3D56"/>
<path id="Vector_21" d="M526.018 320.48L520.478 308.668L523.667 307.243L529.191 319.018L609.168 490.844L605.982 492.278" fill="#3F3D56"/>
<path id="Vector_22" d="M435.608 188.118L368.71 218.235C364.451 211.814 351.612 178.912 354.494 169.15L352.33 159.841L398.522 139.046L404.705 146.415C413.883 149.144 431.75 180.048 435.608 188.118Z" fill="#E6E6E6"/>
<path id="Vector_23" d="M400.452 139.444L352.785 160.904C351.026 161.696 349.152 161.404 348.6 160.253C348.521 160.087 348.472 159.909 348.455 159.727L345.988 134.226C345.882 133.134 346.846 131.896 348.319 131.233L379.931 117.002C381.404 116.339 383.002 116.423 383.795 117.205L402.317 135.478C403.265 136.413 402.75 138.013 401.168 139.052C400.941 139.201 400.701 139.332 400.452 139.444V139.444Z" fill="#E6E6E6"/>
<path id="Vector_24" d="M437.839 339.239C437.323 339.24 436.809 339.181 436.307 339.064C435.6 338.922 434.936 338.625 434.366 338.196C433.796 337.767 433.334 337.217 433.017 336.588L403.875 275.81C402.669 273.294 404.288 270.077 407.484 268.638L450.157 249.426C453.353 247.987 456.935 248.864 458.142 251.38L487.284 312.158C487.575 312.798 487.711 313.494 487.682 314.193C487.653 314.892 487.459 315.575 487.115 316.191C486.366 317.583 485.154 318.69 483.674 319.331L441.002 338.541C440.013 338.994 438.933 339.232 437.839 339.239Z" fill="#3F3D56"/>
<path id="Vector_25" d="M443.675 348.439L394.302 370.666L471.751 532.189L521.124 509.962L443.675 348.439Z" fill="#E6E6E6"/>
<path id="Vector_26" d="M382.848 142.108L368.369 148.627C365.576 149.884 361.806 147.788 359.968 143.955C358.13 140.121 358.908 135.978 361.702 134.72L376.18 128.202C378.974 126.944 382.744 129.04 384.582 132.874C386.42 136.707 385.642 140.85 382.848 142.108Z" fill="#3F3D56"/>
<path id="Vector_27" d="M399.407 316.272C390.174 320.437 390.021 339.095 392.917 345.141L398.164 356.083L431.61 341.026L426.363 330.083C423.462 324.04 408.648 312.12 399.407 316.272Z" fill="#3F3D56"/>
<path id="Vector_28" d="M570.331 372.637C568.604 373.412 566.631 373.491 564.844 372.858C563.056 372.225 561.601 370.931 560.797 369.26L552.258 351.451C551.459 349.779 551.378 347.868 552.032 346.137C552.686 344.406 554.022 342.998 555.747 342.222C557.472 341.445 559.445 341.364 561.231 341.995C563.018 342.627 564.473 343.92 565.277 345.591L573.816 363.399C574.616 365.072 574.698 366.984 574.044 368.716C573.391 370.448 572.056 371.858 570.331 372.637V372.637Z" fill="#3F3D56"/>
<path id="Vector_29" d="M425.094 438.092C423.368 438.867 421.394 438.947 419.607 438.314C417.82 437.681 416.365 436.387 415.561 434.716L407.022 416.907C406.223 415.235 406.141 413.323 406.795 411.593C407.45 409.862 408.786 408.454 410.511 407.677C412.236 406.901 414.208 406.82 415.995 407.451C417.782 408.083 419.237 409.376 420.04 411.046L428.579 428.855C429.379 430.528 429.461 432.44 428.808 434.172C428.155 435.904 426.819 437.314 425.094 438.092Z" fill="#3F3D56"/>
<path id="Vector_30" d="M557.177 333.727L499.922 359.504C496.276 354.008 485.288 325.849 487.755 317.494L488.966 308.148L523.152 291.896L530.728 298.036C541.401 294.54 557.09 320.167 557.177 333.727Z" fill="#E6E6E6"/>
<path id="Vector_31" d="M530.595 331.94L516.116 338.459C513.322 339.716 509.071 336.615 506.641 331.547C504.21 326.479 504.506 321.331 507.3 320.073L521.779 313.554C524.573 312.296 528.824 315.397 531.255 320.466C533.685 325.534 533.389 330.682 530.595 331.94Z" fill="#3F3D56"/>
<path id="Vector_32" d="M407.803 365.481L402.263 353.669L405.452 352.244L410.975 364.018L490.952 535.845L487.766 537.279" fill="#3F3D56"/>
<path id="Vector_33" d="M462.575 375.622L405.32 401.398C396.873 397.172 383.964 369.52 393.153 359.388L394.365 350.042L428.551 333.79L436.126 339.931C443.981 342.266 459.273 368.716 462.575 375.622Z" fill="#E6E6E6"/>
<path id="Vector_34" d="M434.815 371.377L420.336 377.895C417.542 379.153 413.555 376.604 411.45 372.213C409.344 367.822 409.905 363.225 412.699 361.967L427.178 355.449C429.972 354.191 433.959 356.741 436.064 361.131C438.169 365.522 437.609 370.119 434.815 371.377Z" fill="#3F3D56"/>
<path id="Vector_35" d="M490.295 326.112L511.755 346.917L566.258 461.101L556.223 469.501L490.295 326.112Z" fill="#CCCCCC"/>
<path id="Vector_36" d="M443.635 344.972L445.318 374.342L496.763 489.85L509.915 488.208L443.635 344.972Z" fill="#CCCCCC"/>
</g>
<g id="space-line">
<path id="line-bottom" d="M635.966 166.223C625.619 169.555 614.149 172.828 601.556 176.042C536.414 192.661 449.1 205.624 355.696 212.544C262.293 219.465 173.959 219.515 106.967 212.687C74.3337 209.36 48.5224 204.576 30.2507 198.466C10.906 191.998 0.741336 184.203 0.0385607 175.3C-1.32999 157.954 33.994 142.687 63.8682 132.935L64.6773 135.261C23.6521 148.654 1.59352 162.807 2.56474 175.113C3.8012 190.786 41.9511 203.591 107.232 210.246C174.076 217.059 262.247 217.007 355.503 210.097C448.759 203.187 535.913 190.25 600.911 173.668C664.387 157.476 700.086 139.198 698.849 123.525C697.822 110.512 671.349 99.3795 624.307 92.1777L624.703 89.7534C658.884 94.9863 699.932 105.06 701.375 123.338C702.077 132.241 693.254 141.442 675.149 150.685C664.828 155.954 651.715 161.152 635.966 166.223Z" fill="white"/>
<path id="line-top" d="M627.729 484.084C616.826 484.084 604.876 483.685 591.879 482.886C524.653 478.75 437.576 464.368 346.686 442.392C255.797 420.416 171.955 393.469 110.605 366.517C80.7195 353.387 57.7826 340.959 42.4322 329.577C26.18 317.528 19.0711 307.025 21.302 298.361C25.6489 281.482 64.1391 277.79 95.663 277.664L95.6737 280.119C52.3831 280.291 26.8438 286.981 23.7602 298.955C19.8322 314.207 51.8673 338.017 111.651 364.281C172.866 391.174 256.554 418.069 347.3 440.011C438.045 461.952 524.962 476.309 592.04 480.436C657.547 484.468 697.373 478.033 701.3 462.781C704.561 450.118 683.063 431.464 640.766 410.254L641.93 408.075C672.664 423.486 708.338 445.59 703.758 463.376C701.527 472.04 690.159 478.075 669.97 481.313C658.461 483.159 644.325 484.084 627.729 484.084Z" fill="white"/>
</g>
</g>
<defs>
<clipPath id="clip0">
<rect width="762" height="676" fill="white"/>
</clipPath>
</defs>
</svg>
